<svg id="Capa_1" enable-background="new 0 0 513.471 513.471" height="70" viewBox="0 0 513.471 513.471" width="70" xmlns="http://www.w3.org/2000/svg"><g><g><path d="m52.547 402.096 41.371 1.113 29.501 2.773c13.855-11.314 22.707-28.525 22.707-47.809 0-34.07-27.63-61.7-61.7-61.7s-61.7 27.63-61.7 61.7c0 19.284 8.851 36.494 22.704 47.808z" fill="#a9e4f9"/><path d="m57.981 397.566c-7.88-10.357-12.563-23.278-12.563-37.299 0-32.12 24.561-58.525 55.921-61.441-5.379-1.532-11.051-2.35-16.921-2.35-34.07 0-61.7 27.63-61.7 61.7 0 19.284 8.85 36.494 22.704 47.807z" fill="#81d9f8"/><path d="m51.81 198.303 41.371 1.113 29.501 2.773c13.855-11.314 22.707-28.525 22.707-47.809 0-34.07-27.63-61.7-61.7-61.7s-61.7 27.63-61.7 61.7c0 19.284 8.851 36.494 22.704 47.808z" fill="#a9e4f9"/><path d="m57.243 193.773c-7.88-10.357-12.563-23.278-12.563-37.299 0-32.12 24.561-58.525 55.921-61.441-5.379-1.532-11.051-2.35-16.921-2.35-34.07 0-61.7 27.63-61.7 61.7 0 19.284 8.85 36.494 22.704 47.807z" fill="#81d9f8"/><path d="m398.585 199.218 41.371 1.113 29.501 2.773c13.855-11.314 22.707-28.525 22.707-47.809 0-34.07-27.63-61.7-61.7-61.7s-61.7 27.63-61.7 61.7c0 19.284 8.851 36.494 22.704 47.808z" fill="#a9e4f9"/><path d="m224.864 113.117 41.371 1.113 29.501 2.773c13.855-11.314 22.707-28.525 22.707-47.809 0-34.07-27.63-61.7-61.7-61.7s-61.7 27.63-61.7 61.7c0 19.284 8.851 36.494 22.704 47.808z" fill="#a9e4f9"/><g><path d="m230.298 108.586c-7.88-10.357-12.563-23.278-12.563-37.299 0-32.12 24.561-58.525 55.921-61.441-5.379-1.532-11.051-2.35-16.921-2.35-34.07 0-61.7 27.63-61.7 61.7 0 19.284 8.85 36.494 22.704 47.807z" fill="#81d9f8"/><g fill="#f8f7f8"><path d="m294.355 109.805c-2.02-10.5-7.49-20.02-15.55-27.04l-14.87-13.57h-14.87l-14.4 13.57s-13.53 16.54-15.55 27.04l-1.376 7.197c10.63 8.69 24.196 13.893 38.996 13.893s28.37-5.2 39-13.89z"/><circle cx="256.735" cy="65.693" r="27.907"/></g></g><path d="m262.516 130.615c-16.965-4.831-30.955-16.744-38.564-32.332-2.262 3.954-4.169 8.069-4.833 11.52l-1.38 7.2c10.63 8.69 24.2 13.89 39 13.89 1.949 0 3.875-.096 5.778-.272z" fill="#efedee"/><path d="m404.019 194.688c-7.88-10.357-12.563-23.278-12.563-37.299 0-32.12 24.561-58.525 55.921-61.441-5.379-1.532-11.051-2.35-16.921-2.35-34.07 0-61.7 27.63-61.7 61.7 0 19.284 8.85 36.494 22.704 47.807z" fill="#81d9f8"/><path d="m468.076 195.907c-2.02-10.5-7.49-20.02-15.55-27.04l-14.87-13.57h-14.87l-14.4 13.57s-13.53 16.54-15.55 27.04l-1.376 7.197c10.63 8.69 24.196 13.893 38.996 13.893s28.37-5.2 39-13.89z" fill="#f8f7f8"/><path d="m436.237 216.716c-16.965-4.831-30.955-16.744-38.564-32.332-2.262 3.954-4.169 8.069-4.833 11.52l-1.38 7.2c10.63 8.69 24.2 13.89 39 13.89 1.949 0 3.875-.096 5.778-.272z" fill="#efedee"/><circle cx="430.456" cy="151.795" fill="#f8f7f8" r="27.907"/><path d="m121.3 194.992c-2.02-10.5-7.49-20.02-15.55-27.04l-14.87-13.57h-14.87l-14.4 13.57s-13.53 16.54-15.55 27.04l-1.376 7.197c10.63 8.69 24.196 13.893 38.996 13.893s28.37-5.2 39-13.89z" fill="#f8f7f8"/><path d="m89.462 215.801c-16.965-4.831-30.955-16.744-38.564-32.332-2.262 3.954-4.169 8.069-4.833 11.52l-1.38 7.2c10.63 8.69 24.2 13.89 39 13.89 1.949 0 3.875-.096 5.778-.272z" fill="#efedee"/><circle cx="83.68" cy="150.88" fill="#f8f7f8" r="27.907"/><path d="m122.038 398.785c-2.02-10.5-7.49-20.02-15.55-27.04l-14.87-13.57h-14.87l-14.4 13.57s-13.53 16.54-15.55 27.04l-1.376 7.197c10.63 8.69 24.196 13.893 38.996 13.893s28.37-5.2 39-13.89z" fill="#f8f7f8"/><path d="m90.199 419.594c-16.965-4.831-30.955-16.744-38.564-32.332-2.262 3.954-4.169 8.069-4.833 11.52l-1.38 7.2c10.63 8.69 24.2 13.89 39 13.89 1.949 0 3.875-.096 5.778-.272z" fill="#efedee"/><circle cx="84.418" cy="354.673" fill="#f8f7f8" r="27.907"/><path d="m225.598 488.197 41.371 1.113 29.501 2.773c13.855-11.314 22.707-28.525 22.707-47.809 0-34.07-27.63-61.7-61.7-61.7s-61.7 27.63-61.7 61.7c0 19.284 8.851 36.494 22.704 47.808z" fill="#a9e4f9"/><path d="m231.032 483.666c-7.88-10.357-12.563-23.278-12.563-37.299 0-32.12 24.561-58.525 55.921-61.441-5.379-1.532-11.051-2.35-16.921-2.35-34.07 0-61.7 27.63-61.7 61.7 0 19.284 8.85 36.494 22.704 47.807z" fill="#81d9f8"/><path d="m295.089 484.885c-2.02-10.5-7.49-20.02-15.55-27.04l-14.87-13.57h-14.87l-14.4 13.57s-13.53 16.54-15.55 27.04l-1.376 7.197c10.63 8.69 24.196 13.893 38.996 13.893s28.37-5.2 39-13.89z" fill="#f8f7f8"/><path d="m263.25 505.695c-16.965-4.831-30.955-16.744-38.564-32.332-2.262 3.954-4.169 8.069-4.833 11.52l-1.38 7.2c10.63 8.69 24.2 13.89 39 13.89 1.949 0 3.875-.096 5.778-.272z" fill="#efedee"/><circle cx="257.469" cy="440.773" fill="#f8f7f8" r="27.907"/><path d="m397.912 402.096 41.371 1.113 29.501 2.773c13.855-11.314 22.707-28.525 22.707-47.809 0-34.07-27.63-61.7-61.7-61.7s-61.7 27.63-61.7 61.7c0 19.284 8.851 36.494 22.704 47.808z" fill="#a9e4f9"/><path d="m403.345 397.566c-7.88-10.357-12.563-23.278-12.563-37.299 0-32.12 24.561-58.525 55.921-61.441-5.379-1.532-11.051-2.35-16.921-2.35-34.07 0-61.7 27.63-61.7 61.7 0 19.284 8.85 36.494 22.704 47.807z" fill="#81d9f8"/><path d="m467.403 398.785c-2.02-10.5-7.49-20.02-15.55-27.04l-14.87-13.57h-14.87l-14.4 13.57s-13.53 16.54-15.55 27.04l-1.376 7.197c10.63 8.69 24.196 13.893 38.996 13.893s28.37-5.2 39-13.89z" fill="#f8f7f8"/><path d="m435.564 419.594c-16.965-4.831-30.956-16.744-38.564-32.332-2.262 3.954-4.169 8.069-4.833 11.52l-1.38 7.2c10.63 8.69 24.2 13.89 39 13.89 1.949 0 3.875-.096 5.778-.272z" fill="#efedee"/><circle cx="429.783" cy="354.673" fill="#f8f7f8" r="27.907"/></g><path d="m437.286 289.39v-65.31c34.64-3.752 61.697-33.163 61.697-68.783 0-38.155-31.042-69.197-69.197-69.197-24.409 0-45.89 12.715-58.212 31.857l-49.911-24.833c2.758-7.46 4.269-15.52 4.269-23.927 0-7.414-1.185-14.745-3.521-21.791-1.303-3.931-5.544-6.06-9.48-4.757-3.931 1.304-6.062 5.548-4.757 9.48 1.831 5.519 2.759 11.261 2.759 17.068 0 12.22-4.069 23.505-10.918 32.581-2.42-7.448-6.419-14.337-11.68-20.14 2.43-4.796 3.809-10.211 3.809-15.945 0-19.523-15.884-35.407-35.407-35.407s-35.407 15.884-35.407 35.407c0 5.739 1.381 11.158 3.815 15.957-5.261 5.801-9.265 12.682-11.686 20.127-6.849-9.075-10.918-20.361-10.918-32.581 0-29.884 24.312-54.197 54.197-54.197 13.258 0 26.023 4.848 35.945 13.651 3.098 2.75 7.839 2.466 10.587-.632 2.75-3.098 2.466-7.838-.632-10.587-12.671-11.241-28.972-17.431-45.903-17.431-38.155 0-69.197 31.042-69.197 69.197 0 8.407 1.511 16.467 4.269 23.927l-49.911 24.833c-12.322-19.142-33.803-31.857-58.212-31.857-38.155 0-69.197 31.042-69.197 69.197 0 35.621 27.057 65.032 61.697 68.783v65.31c-34.64 3.752-61.697 33.163-61.697 68.784 0 38.155 31.042 69.197 69.197 69.197 25.127 0 47.165-13.465 59.288-33.556l49.244 25.498c-3.009 7.749-4.677 16.162-4.677 24.962 0 38.155 31.042 69.197 69.197 69.197s69.197-31.042 69.197-69.197c0-8.8-1.669-17.212-4.677-24.962l49.244-25.498c12.123 20.091 34.16 33.556 59.288 33.556 38.155 0 69.197-31.042 69.197-69.197-.002-35.621-27.059-65.032-61.699-68.784zm-7.499-117.189c-11.253 0-20.408-9.155-20.408-20.408 0-11.252 9.155-20.407 20.408-20.407 11.252 0 20.407 9.155 20.407 20.407 0 11.253-9.155 20.408-20.407 20.408zm-21.966 7.332c6.041 4.794 13.672 7.668 21.966 7.668s15.924-2.874 21.965-7.668c4.155 5.133 7.035 11.26 8.286 17.781l.495 2.58c-8.743 6.046-19.335 9.599-30.746 9.599s-22.003-3.553-30.746-9.599l.495-2.58c1.25-6.521 4.13-12.648 8.285-17.781zm21.966-78.433c29.884 0 54.197 24.312 54.197 54.197 0 12.229-4.075 23.521-10.933 32.599-2.418-7.454-6.403-14.353-11.665-20.16 2.43-4.796 3.808-10.21 3.808-15.944 0-19.523-15.884-35.407-35.407-35.407-19.524 0-35.408 15.884-35.408 35.407 0 5.734 1.379 11.149 3.809 15.945-5.261 5.803-9.259 12.691-11.68 20.139-6.849-9.075-10.918-20.361-10.918-32.581-.001-29.882 24.312-54.195 54.197-54.195zm-173.052 0c8.294 0 15.924-2.874 21.965-7.668 4.155 5.133 7.035 11.26 8.286 17.782l.495 2.58c-8.743 6.046-19.335 9.599-30.746 9.599s-22.003-3.553-30.746-9.599l.495-2.581c1.25-6.521 4.131-12.648 8.286-17.781 6.041 4.794 13.672 7.668 21.965 7.668zm0-55.814c11.252 0 20.407 9.155 20.407 20.407s-9.154 20.407-20.407 20.407-20.407-9.155-20.407-20.407 9.155-20.407 20.407-20.407zm-227.248 110.011c0-29.884 24.312-54.197 54.197-54.197s54.197 24.312 54.197 54.197c0 12.22-4.069 23.505-10.918 32.581-2.421-7.448-6.419-14.336-11.68-20.139 2.43-4.796 3.809-10.211 3.809-15.945 0-19.523-15.884-35.407-35.408-35.407-19.523 0-35.407 15.884-35.407 35.407 0 5.734 1.379 11.149 3.809 15.945-5.261 5.803-9.259 12.691-11.68 20.14-6.85-9.077-10.919-20.362-10.919-32.582zm54.197 54.197c-11.411 0-22.003-3.553-30.746-9.599l.495-2.58c1.251-6.522 4.131-12.649 8.286-17.782 6.041 4.794 13.672 7.668 21.965 7.668 8.292 0 15.922-2.873 21.963-7.665 4.156 5.132 7.038 11.257 8.289 17.779l.495 2.58c-8.744 6.045-19.336 9.599-30.747 9.599zm0-37.293c-11.252 0-20.407-9.155-20.407-20.408 0-11.252 9.155-20.407 20.407-20.407 11.253 0 20.408 9.155 20.408 20.407 0 11.253-9.155 20.408-20.408 20.408zm-30.746 230.57.495-2.58c1.251-6.522 4.131-12.649 8.286-17.782 6.041 4.794 13.672 7.668 21.965 7.668 8.294 0 15.924-2.874 21.966-7.668 4.155 5.133 7.035 11.26 8.286 17.781l.495 2.581c-8.743 6.046-19.335 9.599-30.746 9.599-11.411.001-22.004-3.553-30.747-9.599zm30.746-27.694c-11.252 0-20.407-9.155-20.407-20.407s9.155-20.407 20.407-20.407c11.253 0 20.408 9.155 20.408 20.407s-9.155 20.407-20.408 20.407zm142.306 113.794.495-2.58c1.25-6.521 4.13-12.649 8.286-17.782 6.041 4.794 13.672 7.668 21.965 7.668 8.29 0 15.918-2.872 21.958-7.662 4.157 5.132 7.043 11.254 8.293 17.776l.495 2.58c-8.743 6.046-19.335 9.599-30.746 9.599s-22.004-3.553-30.746-9.599zm30.745-27.694c-11.252 0-20.407-9.155-20.407-20.407s9.155-20.407 20.407-20.407 20.407 9.155 20.407 20.407-9.154 20.407-20.407 20.407zm43.277 15.68c-2.422-7.446-6.422-14.33-11.684-20.132 2.434-4.799 3.814-10.217 3.814-15.956 0-19.523-15.884-35.407-35.407-35.407s-35.407 15.884-35.407 35.407c0 5.734 1.379 11.149 3.809 15.945-5.261 5.803-9.26 12.692-11.68 20.139-6.849-9.075-10.918-20.361-10.918-32.58 0-29.884 24.312-54.197 54.197-54.197s54.197 24.312 54.197 54.197c-.001 12.222-4.071 23.509-10.921 32.584zm99.028-74.086.495-2.58c1.251-6.522 4.132-12.648 8.288-17.78 6.041 4.793 13.671 7.666 21.963 7.666s15.922-2.873 21.962-7.665c4.155 5.133 7.038 11.257 8.289 17.779l.495 2.581c-8.743 6.046-19.335 9.599-30.746 9.599s-22.003-3.554-30.746-9.6zm30.747-27.694c-11.253 0-20.408-9.155-20.408-20.407s9.155-20.407 20.408-20.407c11.252 0 20.407 9.155 20.407 20.407s-9.155 20.407-20.407 20.407zm43.278 15.677c-2.421-7.448-6.419-14.337-11.68-20.14 2.43-4.796 3.809-10.211 3.809-15.945 0-19.523-15.884-35.407-35.407-35.407-19.524 0-35.408 15.884-35.408 35.407 0 5.74 1.381 11.159 3.816 15.959-5.261 5.801-9.264 12.682-11.686 20.127-6.85-9.076-10.919-20.361-10.919-32.582 0-7.774 1.626-15.298 4.833-22.362 1.712-3.772.042-8.217-3.729-9.93-3.774-1.712-8.218-.042-9.93 3.729-4.096 9.025-6.173 18.635-6.173 28.562 0 7.694 1.281 15.091 3.61 22.01l-49.853 25.814c-12.414-18.623-33.6-30.921-57.611-30.921s-45.197 12.298-57.61 30.921l-49.853-25.814c2.328-6.92 3.61-14.316 3.61-22.01 0-10.381-2.251-20.375-6.69-29.703-1.779-3.74-6.253-5.329-9.995-3.549-3.74 1.78-5.329 6.255-3.549 9.995 3.473 7.298 5.234 15.123 5.234 23.256 0 12.22-4.069 23.505-10.918 32.581-2.421-7.448-6.419-14.337-11.68-20.14 2.43-4.796 3.809-10.211 3.809-15.945 0-19.523-15.884-35.407-35.408-35.407-19.523 0-35.407 15.884-35.407 35.407 0 5.734 1.379 11.149 3.809 15.945-5.261 5.803-9.259 12.691-11.68 20.14-6.849-9.075-10.918-20.361-10.918-32.581 0-29.884 24.313-54.197 54.197-54.197 11.011 0 21.615 3.29 30.665 9.515 3.413 2.347 8.083 1.483 10.43-1.93s1.483-8.082-1.93-10.43c-9.49-6.527-20.316-10.523-31.665-11.748v-65.301c34.64-3.752 61.697-33.163 61.697-68.783 0-8.407-1.511-16.467-4.269-23.927l49.911-24.833c12.322 19.143 33.803 31.857 58.211 31.857s45.89-12.715 58.211-31.857l49.911 24.833c-2.758 7.46-4.269 15.52-4.269 23.927 0 35.62 27.057 65.031 61.697 68.783v65.307c-11.803 1.271-23.011 5.533-32.771 12.531-3.367 2.414-4.139 7.099-1.725 10.465 2.414 3.367 7.1 4.139 10.465 1.725 9.244-6.628 20.147-10.132 31.53-10.132 29.884 0 54.197 24.313 54.197 54.197-.001 12.221-4.07 23.506-10.919 32.581z"/></g></svg>