<svg id="Layer_5" enable-background="new 0 0 64 64" height="100" viewBox="0 0 64 64" width="100" xmlns="http://www.w3.org/2000/svg" xmlns:xlink="http://www.w3.org/1999/xlink"><linearGradient id="SVGID_1_" gradientUnits="userSpaceOnUse" x1="32" x2="32" y1="63" y2="1"><stop offset="0" stop-color="#9f2fff"/><stop offset="1" stop-color="#0bb1d3"/></linearGradient><path d="m30 29v1c0 .552.448 1 1 1h2c1.654 0 3 1.346 3 3v3h-3v2h-2v-2c-1.654 0-3-1.346-3-3h2c0 .552.448 1 1 1h3v-1c0-.552-.448-1-1-1h-2c-1.654 0-3-1.346-3-3v-3h3v-2h2v2c1.654 0 3 1.346 3 3h-2c0-.552-.448-1-1-1zm33-12c0 8.822-7.178 16-16 16-1.351 0-2.7-.178-4.024-.527-.244 5.687-4.816 10.259-10.503 10.503.349 1.324.527 2.673.527 4.024 0 8.822-7.178 16-16 16s-16-7.178-16-16 7.178-16 16-16c1.351 0 2.7.178 4.024.527.244-5.687 4.816-10.259 10.503-10.503-.349-1.324-.527-2.673-.527-4.024 0-8.822 7.178-16 16-16s16 7.178 16 16zm-46 44c3.419 0 6.552-1.236 8.986-3.279-.085-2.746-1.4-5.183-3.417-6.778l-.768 6.907-4.801-3.599-4.801 3.6-.768-6.907c-2.018 1.595-3.333 4.032-3.417 6.778 2.434 2.042 5.567 3.278 8.986 3.278zm0-14c2.206 0 4-1.794 4-4s-1.794-4-4-4-4 1.794-4 4 1.794 4 4 4zm1.866 2.197c-.602-.127-1.226-.197-1.866-.197s-1.264.07-1.866.197l1.866 2.241zm-.424 3.634 1.757 1.318.44-3.955zm-2.884 0-2.197-2.637.44 3.955zm15.442-5.831c0-1.391-.228-2.779-.652-4.138-4.742-.719-8.49-4.468-9.21-9.21-1.359-.424-2.747-.652-4.138-.652-7.72 0-14 6.28-14 14 0 3.38 1.204 6.484 3.206 8.905.739-3.816 3.458-6.925 7.041-8.232-1.368-1.1-2.247-2.785-2.247-4.673 0-3.309 2.691-6 6-6s6 2.691 6 6c0 1.888-.879 3.573-2.246 4.674 3.583 1.307 6.301 4.415 7.041 8.232 2.001-2.422 3.205-5.526 3.205-8.906zm10-15c0-4.963-4.037-9-9-9s-9 4.037-9 9 4.037 9 9 9 9-4.037 9-9zm6-1c3.419 0 6.552-1.236 8.986-3.279-.106-3.449-2.158-6.408-5.096-7.825-.334 1.449-1.456 2.589-2.89 2.961v6.143h-2v-6.142c-1.434-.373-2.556-1.513-2.89-2.962-1.66.798-3.048 2.104-3.965 3.757 1.958 1.679 3.314 4.031 3.718 6.695 1.358.424 2.746.652 4.137.652zm0-14c2.206 0 4-1.794 4-4s-1.794-4-4-4-4 1.794-4 4 1.794 4 4 4zm1.977 2.226c-.637-.144-1.297-.226-1.977-.226-.676 0-1.333.098-1.975.244.122.987.956 1.756 1.975 1.756 1.025 0 1.863-.779 1.977-1.774zm12.023-2.226c0-7.72-6.28-14-14-14s-14 6.28-14 14c0 1.391.228 2.779.652 4.138 1.38.209 2.675.671 3.838 1.344 1.307-2.248 3.355-3.94 5.75-4.813-1.364-1.101-2.24-2.784-2.24-4.669 0-3.309 2.691-6 6-6s6 2.691 6 6c0 1.888-.879 3.573-2.246 4.674 3.583 1.307 6.301 4.415 7.041 8.232 2.001-2.422 3.205-5.526 3.205-8.906zm-10 18.333 8 10.667h-4.033c-.517 7.807-7.032 14-14.967 14h-7v-2.754l6.072-1.735c4.345-1.241 7.47-5.071 7.882-9.511h-3.954zm4 8.667-4-5.333-4 5.333h2v1c0 5.743-3.856 10.856-9.379 12.435l-1.98.565h2.359c7.168 0 13-5.832 13-13v-1zm-37.954-26h3.954l-8 10.667-8-10.667h4.033c.517-7.807 7.032-14 14.967-14h7v2.754l-6.072 1.735c-4.345 1.241-7.47 5.072-7.882 9.511zm7.333-11.435 1.98-.565h-2.359c-7.168 0-13 5.832-13 13v1h-2l4 5.333 4-5.333h-2v-1c0-5.743 3.856-10.856 9.379-12.435z" fill="url(#SVGID_1_)"/></svg>