<svg id="Solid" height="512" viewBox="0 0 512 512" width="512" xmlns="http://www.w3.org/2000/svg"><path d="m44.944 80-8 16h70.112l-8-16z"/><path d="m48 32h48v32h-48z"/><path d="m232 32h48v32h-48z"/><path d="m291.056 96-8-16h-54.112l-8 16z"/><path d="m475.056 96-8-16h-54.112l-8 16z"/><path d="m416 32h48v32h-48z"/><path d="m44.944 264-8 16h70.112l-8-16z"/><path d="m48 216h48v32h-48z"/><path d="m412.944 264-8 16h70.112l-8-16z"/><path d="m416 216h48v32h-48z"/><path d="m44.944 448-8 16h70.112l-8-16z"/><path d="m48 400h48v32h-48z"/><path d="m412.944 448-8 16h70.112l-8-16z"/><path d="m416 400h48v32h-48z"/><path d="m64 112h16v96h-16z"/><path d="m64 296h16v88h-16z"/><path d="m112 40h104v16h-104z"/><path d="m432 112h16v96h-16z"/><path d="m432 296h16v88h-16z"/><path d="m296 40h104v16h-104z"/><path d="m248 112h16v80h-16z"/><path d="m112 248h80v16h-80z"/><path d="m320 248h80v16h-80z"/><path d="m306.745 328h-34.745a8 8 0 0 1 -8-8v-64a8 8 0 0 0 -16 0v112a8 8 0 0 1 -13.657 5.657l-19.03-19.029a8.97 8.97 0 1 0 -12.685 12.685l43.029 43.03a8 8 0 0 1 2.343 5.657v16h64v-16a8 8 0 0 1 2.343-5.657l18.745-18.743a37.255 37.255 0 0 0 -26.343-63.6z"/><path d="m304 256a48 48 0 1 0 -72 41.557v-41.557a24 24 0 0 1 48 0v41.557a48.353 48.353 0 0 0 24-41.557z"/><path d="m232 496h96v-48h-96zm64-32h16v16h-16z"/></svg>